<mxfile host="app.diagrams.net" modified="2023-04-08T06:16:32.432Z" agent="Mozilla/5.0 (Windows NT 10.0; Win64; x64) AppleWebKit/537.36 (KHTML, like Gecko) Chrome/111.0.0.0 Safari/537.36" version="21.1.5" etag="--exs0PZL4__7-l6jPgi" type="github">
  <diagram name="Страница 1" id="vAFcw6igVvxuyDuLFL1n">
    <mxGraphModel>
      <root>
        <mxCell id="0" />
        <mxCell id="1" parent="0" />
      </root>
    </mxGraphModel>
  </diagram>
</mxfile>
